<svg xmlns="http://www.w3.org/2000/svg" xmlns:xlink="http://www.w3.org/1999/xlink" width="500" zoomAndPan="magnify" viewBox="0 0 375 374.999991" height="500" preserveAspectRatio="xMidYMid meet" version="1.0"><defs><clipPath id="fd47b5b3d7"><path d="M 5.96875 37.5 L 368.957031 37.5 L 368.957031 97.753906 L 5.96875 97.753906 Z M 5.96875 37.5 " clip-rule="nonzero"/></clipPath><clipPath id="9968fcffd3"><path d="M 5.96875 157 L 368.957031 157 L 368.957031 218 L 5.96875 218 Z M 5.96875 157 " clip-rule="nonzero"/></clipPath><clipPath id="37e53ce280"><path d="M 5.96875 277.109375 L 368.957031 277.109375 L 368.957031 337.5 L 5.96875 337.5 Z M 5.96875 277.109375 " clip-rule="nonzero"/></clipPath></defs><g clip-path="url(#fd47b5b3d7)"><path fill="#1e1e1e" d="M 338.953125 97.511719 L 35.96875 97.511719 C 19.398438 97.511719 5.96875 84.078125 5.96875 67.503906 C 5.96875 50.9375 19.398438 37.503906 35.96875 37.503906 L 338.953125 37.503906 C 355.523438 37.503906 368.949219 50.9375 368.949219 67.503906 C 368.949219 84.078125 355.523438 97.511719 338.953125 97.511719 " fill-opacity="1" fill-rule="nonzero"/></g><g clip-path="url(#9968fcffd3)"><path fill="#1e1e1e" d="M 338.953125 217.535156 L 35.96875 217.535156 C 19.398438 217.535156 5.96875 204.101562 5.96875 187.527344 C 5.96875 170.953125 19.398438 157.523438 35.96875 157.523438 L 338.953125 157.523438 C 355.523438 157.523438 368.949219 170.953125 368.949219 187.527344 C 368.949219 204.101562 355.523438 217.535156 338.953125 217.535156 " fill-opacity="1" fill-rule="nonzero"/></g><g clip-path="url(#37e53ce280)"><path fill="#1e1e1e" d="M 338.953125 337.558594 L 35.96875 337.558594 C 19.398438 337.558594 5.96875 324.125 5.96875 307.550781 C 5.96875 290.976562 19.398438 277.546875 35.96875 277.546875 L 338.953125 277.546875 C 355.523438 277.546875 368.949219 290.976562 368.949219 307.550781 C 368.949219 324.125 355.523438 337.558594 338.953125 337.558594 " fill-opacity="1" fill-rule="nonzero"/></g></svg>